<svg width="30" height="30" viewBox="0 0 30 30" fill="none" xmlns="http://www.w3.org/2000/svg">
<path d="M25.0077 1.61914H5.01952C3.44249 1.61914 2.16406 2.91928 2.16406 4.52309V24.8508C2.16406 26.4546 3.44249 27.7547 5.01952 27.7547H25.0077C26.5847 27.7547 27.8631 26.4546 27.8631 24.8508V4.52309C27.8631 2.91928 26.5847 1.61914 25.0077 1.61914Z" stroke="#6E6F88" stroke-width="2.90395" stroke-linecap="round" stroke-linejoin="round"/>
<path d="M10.0166 11.7837C11.1994 11.7837 12.1582 10.8086 12.1582 9.6057C12.1582 8.40284 11.1994 7.42773 10.0166 7.42773C8.83382 7.42773 7.875 8.40284 7.875 9.6057C7.875 10.8086 8.83382 11.7837 10.0166 11.7837Z" stroke="#6E6F88" stroke-width="2.90395" stroke-linecap="round" stroke-linejoin="round"/>
<path d="M27.8592 19.0431L20.7206 11.7832L5.01562 27.7549" stroke="#6E6F88" stroke-width="2.90395" stroke-linecap="round" stroke-linejoin="round"/>
</svg>
