<svg width="19" height="19" viewBox="0 0 19 19" fill="none" xmlns="http://www.w3.org/2000/svg">
<path fill-rule="evenodd" clip-rule="evenodd" d="M11.8385 12.8496C10.4906 13.9265 8.78157 14.4465 7.06234 14.3027C5.34312 14.1589 3.74421 13.3622 2.59401 12.0764C1.44381 10.7905 0.829628 9.11299 0.877614 7.38843C0.9256 5.66386 1.63211 4.02313 2.85203 2.8032C4.07196 1.58328 5.71269 0.876772 7.43726 0.828786C9.16182 0.7808 10.8393 1.39498 12.1252 2.54518C13.4111 3.69538 14.2077 5.29429 14.3515 7.01352C14.4953 8.73275 13.9754 10.4418 12.8985 11.7896L18.0545 16.9446C18.1281 17.0133 18.1872 17.0961 18.2282 17.1881C18.2692 17.2801 18.2913 17.3794 18.293 17.4801C18.2948 17.5808 18.2763 17.6808 18.2386 17.7742C18.2009 17.8676 18.1447 17.9524 18.0735 18.0237C18.0023 18.0949 17.9174 18.151 17.8241 18.1887C17.7307 18.2265 17.6306 18.245 17.5299 18.2432C17.4292 18.2414 17.3299 18.2194 17.2379 18.1784C17.1459 18.1374 17.0631 18.0783 16.9945 18.0046L11.8385 12.8496ZM3.91246 11.2876C3.1785 10.5536 2.67861 9.61846 2.47597 8.6004C2.27333 7.58234 2.37703 6.52706 2.77397 5.56793C3.17091 4.60879 3.84327 3.78885 4.70607 3.21173C5.56888 2.63461 6.5834 2.32621 7.62143 2.32551C8.65945 2.32481 9.67439 2.63185 10.538 3.20781C11.4016 3.78377 12.075 4.6028 12.4732 5.5614C12.8715 6.52 12.9766 7.57514 12.7753 8.59347C12.5741 9.6118 12.0754 10.5476 11.3425 11.2826L11.3375 11.2876L11.3325 11.2916C10.3475 12.2743 9.01288 12.8258 7.62163 12.825C6.23037 12.8243 4.8963 12.2713 3.91246 11.2876Z" fill="#434DFD"/>
</svg>
