<svg width="18" height="18" viewBox="0 0 18 18" fill="none" xmlns="http://www.w3.org/2000/svg">
<path fill-rule="evenodd" clip-rule="evenodd" d="M11.4088 12.2383C10.0609 13.3152 8.35189 13.8352 6.63266 13.6914C4.91343 13.5475 3.31452 12.7509 2.16432 11.465C1.01412 10.1791 0.399941 8.50167 0.447927 6.7771C0.495913 5.05253 1.20242 3.4118 2.42234 2.19188C3.64227 0.971951 5.283 0.265444 7.00757 0.217458C8.73213 0.169472 10.4096 0.78365 11.6955 1.93385C12.9814 3.08405 13.778 4.68296 13.9218 6.40219C14.0656 8.12142 13.5457 9.83046 12.4688 11.1783L17.6248 16.3333C17.6985 16.402 17.7576 16.4848 17.7985 16.5768C17.8395 16.6688 17.8616 16.7681 17.8634 16.8688C17.8651 16.9695 17.8466 17.0695 17.8089 17.1629C17.7712 17.2563 17.715 17.3411 17.6438 17.4123C17.5726 17.4836 17.4878 17.5397 17.3944 17.5774C17.301 17.6151 17.2009 17.6337 17.1002 17.6319C16.9995 17.6301 16.9002 17.6081 16.8082 17.5671C16.7162 17.5261 16.6334 17.467 16.5648 17.3933L11.4088 12.2383ZM3.48277 10.6763C2.74881 9.94227 2.24892 9.00713 2.04628 7.98907C1.84364 6.97101 1.94734 5.91574 2.34428 4.9566C2.74122 3.99746 3.41358 3.17752 4.27638 2.6004C5.13919 2.02328 6.15371 1.71488 7.19174 1.71418C8.22977 1.71348 9.24471 2.02052 10.1083 2.59648C10.9719 3.17244 11.6453 3.99147 12.0436 4.95007C12.4418 5.90867 12.5469 6.96381 12.3456 7.98214C12.1444 9.00047 11.6457 9.93628 10.9128 10.6713L10.9078 10.6763L10.9028 10.6803C9.91786 11.6629 8.58319 12.2144 7.19194 12.2137C5.80069 12.2129 4.46662 11.66 3.48277 10.6763Z" fill="#8B8DA8"/>
</svg>
